<mxfile host="65bd71144e">
    <diagram id="EZY0XjnHVkyTcm2_Kvh0" name="Page-1">
        <mxGraphModel dx="1281" dy="722" grid="1" gridSize="10" guides="1" tooltips="1" connect="1" arrows="1" fold="1" page="1" pageScale="1" pageWidth="827" pageHeight="1169" math="0" shadow="0">
            <root>
                <mxCell id="0"/>
                <mxCell id="1" parent="0"/>
                <mxCell id="6" value="" style="group" vertex="1" connectable="0" parent="1">
                    <mxGeometry x="150" y="670" width="180" height="220" as="geometry"/>
                </mxCell>
                <mxCell id="2" value="&lt;b&gt;Node&lt;/b&gt;" style="html=1;dropTarget=0;" vertex="1" parent="6">
                    <mxGeometry width="180" height="220" as="geometry"/>
                </mxCell>
                <mxCell id="3" value="" style="shape=module;jettyWidth=8;jettyHeight=4;" vertex="1" parent="2">
                    <mxGeometry x="1" width="20" height="20" relative="1" as="geometry">
                        <mxPoint x="-27" y="7" as="offset"/>
                    </mxGeometry>
                </mxCell>
                <mxCell id="4" value="Espnow" style="html=1;" vertex="1" parent="6">
                    <mxGeometry x="35" y="40" width="110" height="50" as="geometry"/>
                </mxCell>
                <mxCell id="5" value="Espmesh" style="html=1;" vertex="1" parent="6">
                    <mxGeometry x="35" y="130" width="110" height="50" as="geometry"/>
                </mxCell>
                <mxCell id="7" value="" style="group" vertex="1" connectable="0" parent="1">
                    <mxGeometry x="390" y="670" width="180" height="220" as="geometry"/>
                </mxCell>
                <mxCell id="8" value="&lt;b&gt;Node&lt;/b&gt;" style="html=1;dropTarget=0;" vertex="1" parent="7">
                    <mxGeometry width="180" height="220" as="geometry"/>
                </mxCell>
                <mxCell id="9" value="" style="shape=module;jettyWidth=8;jettyHeight=4;" vertex="1" parent="8">
                    <mxGeometry x="1" width="20" height="20" relative="1" as="geometry">
                        <mxPoint x="-27" y="7" as="offset"/>
                    </mxGeometry>
                </mxCell>
                <mxCell id="10" value="Espnow" style="html=1;" vertex="1" parent="7">
                    <mxGeometry x="35" y="40" width="110" height="50" as="geometry"/>
                </mxCell>
                <mxCell id="11" value="Espmesh" style="html=1;" vertex="1" parent="7">
                    <mxGeometry x="35" y="130" width="110" height="50" as="geometry"/>
                </mxCell>
                <mxCell id="12" value="" style="group" vertex="1" connectable="0" parent="1">
                    <mxGeometry x="640" y="670" width="180" height="220" as="geometry"/>
                </mxCell>
                <mxCell id="13" value="&lt;b&gt;Node&lt;/b&gt;" style="html=1;dropTarget=0;" vertex="1" parent="12">
                    <mxGeometry width="180" height="220" as="geometry"/>
                </mxCell>
                <mxCell id="14" value="" style="shape=module;jettyWidth=8;jettyHeight=4;" vertex="1" parent="13">
                    <mxGeometry x="1" width="20" height="20" relative="1" as="geometry">
                        <mxPoint x="-27" y="7" as="offset"/>
                    </mxGeometry>
                </mxCell>
                <mxCell id="15" value="Espnow" style="html=1;" vertex="1" parent="12">
                    <mxGeometry x="35" y="40" width="110" height="50" as="geometry"/>
                </mxCell>
                <mxCell id="16" value="Espmesh" style="html=1;" vertex="1" parent="12">
                    <mxGeometry x="35" y="130" width="110" height="50" as="geometry"/>
                </mxCell>
                <mxCell id="17" value="" style="group" vertex="1" connectable="0" parent="1">
                    <mxGeometry x="210" y="939" width="180" height="220" as="geometry"/>
                </mxCell>
                <mxCell id="18" value="&lt;b&gt;Node&lt;/b&gt;" style="html=1;dropTarget=0;" vertex="1" parent="17">
                    <mxGeometry width="180" height="220" as="geometry"/>
                </mxCell>
                <mxCell id="19" value="" style="shape=module;jettyWidth=8;jettyHeight=4;" vertex="1" parent="18">
                    <mxGeometry x="1" width="20" height="20" relative="1" as="geometry">
                        <mxPoint x="-27" y="7" as="offset"/>
                    </mxGeometry>
                </mxCell>
                <mxCell id="20" value="Espnow" style="html=1;" vertex="1" parent="17">
                    <mxGeometry x="35" y="40" width="110" height="50" as="geometry"/>
                </mxCell>
                <mxCell id="21" value="Espmesh" style="html=1;" vertex="1" parent="17">
                    <mxGeometry x="35" y="130" width="110" height="50" as="geometry"/>
                </mxCell>
                <mxCell id="22" value="" style="group" vertex="1" connectable="0" parent="1">
                    <mxGeometry x="570" y="940" width="180" height="220" as="geometry"/>
                </mxCell>
                <mxCell id="23" value="&lt;b&gt;Node&lt;/b&gt;" style="html=1;dropTarget=0;" vertex="1" parent="22">
                    <mxGeometry width="180" height="220" as="geometry"/>
                </mxCell>
                <mxCell id="24" value="" style="shape=module;jettyWidth=8;jettyHeight=4;" vertex="1" parent="23">
                    <mxGeometry x="1" width="20" height="20" relative="1" as="geometry">
                        <mxPoint x="-27" y="7" as="offset"/>
                    </mxGeometry>
                </mxCell>
                <mxCell id="25" value="Espnow" style="html=1;" vertex="1" parent="22">
                    <mxGeometry x="35" y="40" width="110" height="50" as="geometry"/>
                </mxCell>
                <mxCell id="26" value="Espmesh" style="html=1;" vertex="1" parent="22">
                    <mxGeometry x="35" y="130" width="110" height="50" as="geometry"/>
                </mxCell>
                <mxCell id="27" value="" style="group" vertex="1" connectable="0" parent="1">
                    <mxGeometry x="342" y="360" width="276" height="220" as="geometry"/>
                </mxCell>
                <mxCell id="28" value="&lt;b&gt;Root&lt;/b&gt;" style="html=1;dropTarget=0;" vertex="1" parent="27">
                    <mxGeometry width="276" height="220" as="geometry"/>
                </mxCell>
                <mxCell id="29" value="" style="shape=module;jettyWidth=8;jettyHeight=4;" vertex="1" parent="28">
                    <mxGeometry x="1" width="20" height="20" relative="1" as="geometry">
                        <mxPoint x="-27" y="7" as="offset"/>
                    </mxGeometry>
                </mxCell>
                <mxCell id="37" value="Espnow" style="html=1;" vertex="1" parent="27">
                    <mxGeometry x="10" y="30" width="110" height="50" as="geometry"/>
                </mxCell>
                <mxCell id="38" value="Espmesh" style="html=1;" vertex="1" parent="27">
                    <mxGeometry x="10" y="140" width="110" height="50" as="geometry"/>
                </mxCell>
                <mxCell id="39" value="Mesh server" style="html=1;" vertex="1" parent="27">
                    <mxGeometry x="150" y="30" width="110" height="50" as="geometry"/>
                </mxCell>
                <mxCell id="40" value="Master" style="html=1;dropTarget=0;" vertex="1" parent="1">
                    <mxGeometry x="390" y="210" width="180" height="90" as="geometry"/>
                </mxCell>
                <mxCell id="41" value="" style="shape=module;jettyWidth=8;jettyHeight=4;" vertex="1" parent="40">
                    <mxGeometry x="1" width="20" height="20" relative="1" as="geometry">
                        <mxPoint x="-27" y="7" as="offset"/>
                    </mxGeometry>
                </mxCell>
                <mxCell id="45" value="" style="edgeStyle=segmentEdgeStyle;endArrow=classic;html=1;curved=0;rounded=0;endSize=8;startSize=8;exitX=1;exitY=0.414;exitDx=0;exitDy=0;exitPerimeter=0;entryX=0.5;entryY=1;entryDx=0;entryDy=0;" edge="1" parent="1" source="18">
                    <mxGeometry width="50" height="50" relative="1" as="geometry">
                        <mxPoint x="390.53999999999996" y="1030.42" as="sourcePoint"/>
                        <mxPoint x="480" y="890.0000000000001" as="targetPoint"/>
                        <Array as="points">
                            <mxPoint x="480" y="1030"/>
                        </Array>
                    </mxGeometry>
                </mxCell>
                <mxCell id="46" value="" style="edgeStyle=segmentEdgeStyle;endArrow=classic;html=1;curved=0;rounded=0;endSize=8;startSize=8;exitX=0;exitY=0.409;exitDx=0;exitDy=0;exitPerimeter=0;entryX=0.5;entryY=1;entryDx=0;entryDy=0;" edge="1" parent="1" source="23" target="8">
                    <mxGeometry width="50" height="50" relative="1" as="geometry">
                        <mxPoint x="399.0999999999999" y="1045.7" as="sourcePoint"/>
                        <mxPoint x="450" y="1000" as="targetPoint"/>
                        <Array as="points">
                            <mxPoint x="480" y="1030"/>
                        </Array>
                    </mxGeometry>
                </mxCell>
                <mxCell id="47" value="" style="edgeStyle=elbowEdgeStyle;elbow=vertical;endArrow=classic;html=1;curved=0;rounded=0;endSize=8;startSize=8;exitX=0.75;exitY=0;exitDx=0;exitDy=0;entryX=0.25;entryY=1;entryDx=0;entryDy=0;" edge="1" parent="1" source="2" target="28">
                    <mxGeometry width="50" height="50" relative="1" as="geometry">
                        <mxPoint x="300" y="655" as="sourcePoint"/>
                        <mxPoint x="350" y="605" as="targetPoint"/>
                    </mxGeometry>
                </mxCell>
                <mxCell id="48" value="" style="edgeStyle=elbowEdgeStyle;elbow=vertical;endArrow=classic;html=1;curved=0;rounded=0;endSize=8;startSize=8;entryX=0.75;entryY=1;entryDx=0;entryDy=0;exitX=0.25;exitY=0;exitDx=0;exitDy=0;" edge="1" parent="1" source="13" target="28">
                    <mxGeometry width="50" height="50" relative="1" as="geometry">
                        <mxPoint x="240" y="610" as="sourcePoint"/>
                        <mxPoint x="290" y="560" as="targetPoint"/>
                    </mxGeometry>
                </mxCell>
                <mxCell id="49" value="" style="endArrow=classic;html=1;entryX=0.5;entryY=1;entryDx=0;entryDy=0;exitX=0.5;exitY=0;exitDx=0;exitDy=0;" edge="1" parent="1" source="8" target="28">
                    <mxGeometry width="50" height="50" relative="1" as="geometry">
                        <mxPoint x="260" y="630" as="sourcePoint"/>
                        <mxPoint x="310" y="580" as="targetPoint"/>
                    </mxGeometry>
                </mxCell>
                <mxCell id="50" value="" style="endArrow=classic;html=1;entryX=0.5;entryY=1;entryDx=0;entryDy=0;exitX=0.5;exitY=0;exitDx=0;exitDy=0;" edge="1" parent="1" source="28" target="40">
                    <mxGeometry width="50" height="50" relative="1" as="geometry">
                        <mxPoint x="260" y="370" as="sourcePoint"/>
                        <mxPoint x="310" y="320" as="targetPoint"/>
                    </mxGeometry>
                </mxCell>
                <mxCell id="53" value="1.1 Node - Root: Hello" style="text;html=1;align=left;verticalAlign=middle;resizable=0;points=[];autosize=1;strokeColor=none;fillColor=none;" vertex="1" parent="1">
                    <mxGeometry x="10" width="140" height="30" as="geometry"/>
                </mxCell>
                <mxCell id="54" value="1.2. Root - Node&amp;nbsp;Boroadcast : Update connection table" style="text;html=1;align=left;verticalAlign=middle;resizable=0;points=[];autosize=1;strokeColor=none;fillColor=none;" vertex="1" parent="1">
                    <mxGeometry x="10" y="30" width="320" height="30" as="geometry"/>
                </mxCell>
                <mxCell id="56" value="2. Node - Node: Distance information transfer" style="text;html=1;align=left;verticalAlign=middle;resizable=0;points=[];autosize=1;strokeColor=none;fillColor=none;" vertex="1" parent="1">
                    <mxGeometry x="10" y="120" width="260" height="30" as="geometry"/>
                </mxCell>
                <mxCell id="57" value="4.1. Master - Root: Network config" style="text;html=1;align=left;verticalAlign=middle;resizable=0;points=[];autosize=1;strokeColor=none;fillColor=none;" vertex="1" parent="1">
                    <mxGeometry x="10" y="240" width="210" height="30" as="geometry"/>
                </mxCell>
                <mxCell id="59" value="4.2. Root - Node Broadcast: Network config" style="text;html=1;align=left;verticalAlign=middle;resizable=0;points=[];autosize=1;strokeColor=none;fillColor=none;" vertex="1" parent="1">
                    <mxGeometry x="10" y="270" width="250" height="30" as="geometry"/>
                </mxCell>
                <mxCell id="60" value="4.3. Root - Master: Network config result" style="text;html=1;align=left;verticalAlign=middle;resizable=0;points=[];autosize=1;strokeColor=none;fillColor=none;" vertex="1" parent="1">
                    <mxGeometry x="10" y="300" width="240" height="30" as="geometry"/>
                </mxCell>
                <mxCell id="61" value="3. Node - Root - Master: Log" style="text;html=1;align=left;verticalAlign=middle;resizable=0;points=[];autosize=1;strokeColor=none;fillColor=none;" vertex="1" parent="1">
                    <mxGeometry x="10" y="180" width="180" height="30" as="geometry"/>
                </mxCell>
                <mxCell id="62" value="5.1. Master - Root: Request network info" style="text;html=1;align=left;verticalAlign=middle;resizable=0;points=[];autosize=1;strokeColor=none;fillColor=none;" vertex="1" parent="1">
                    <mxGeometry x="10" y="360" width="240" height="30" as="geometry"/>
                </mxCell>
                <mxCell id="63" value="5.2. Root - Node Broadcast: Request network info" style="text;html=1;align=left;verticalAlign=middle;resizable=0;points=[];autosize=1;strokeColor=none;fillColor=none;" vertex="1" parent="1">
                    <mxGeometry x="10" y="390" width="290" height="30" as="geometry"/>
                </mxCell>
                <mxCell id="64" value="5.3. Node - Root - Master: Network info*" style="text;html=1;align=left;verticalAlign=middle;resizable=0;points=[];autosize=1;strokeColor=none;fillColor=none;" vertex="1" parent="1">
                    <mxGeometry x="10" y="420" width="240" height="30" as="geometry"/>
                </mxCell>
                <mxCell id="65" value="*Network info should be send on discrecion of the node,&lt;br&gt;or on request the master." style="text;html=1;align=left;verticalAlign=middle;resizable=0;points=[];autosize=1;strokeColor=none;fillColor=none;" vertex="1" parent="1">
                    <mxGeometry x="10" y="450" width="320" height="40" as="geometry"/>
                </mxCell>
                <mxCell id="67" value="6.1. Master - Root - Node: Individual config" style="text;html=1;align=left;verticalAlign=middle;resizable=0;points=[];autosize=1;strokeColor=none;fillColor=none;" vertex="1" parent="1">
                    <mxGeometry x="10" y="520" width="250" height="30" as="geometry"/>
                </mxCell>
                <mxCell id="68" value="6.2. Note - Root - Master: Individual config result" style="text;html=1;align=left;verticalAlign=middle;resizable=0;points=[];autosize=1;strokeColor=none;fillColor=none;" vertex="1" parent="1">
                    <mxGeometry x="10" y="550" width="280" height="30" as="geometry"/>
                </mxCell>
                <mxCell id="69" value="1.3. Root - Master: Node added" style="text;html=1;align=left;verticalAlign=middle;resizable=0;points=[];autosize=1;strokeColor=none;fillColor=none;" vertex="1" parent="1">
                    <mxGeometry x="10" y="60" width="190" height="30" as="geometry"/>
                </mxCell>
                <mxCell id="70" value="Destination" style="html=1;" vertex="1" parent="1">
                    <mxGeometry x="390" y="40" width="70" height="40" as="geometry"/>
                </mxCell>
                <mxCell id="71" value="Msg. Type" style="html=1;" vertex="1" parent="1">
                    <mxGeometry x="460" y="40" width="70" height="40" as="geometry"/>
                </mxCell>
                <mxCell id="72" value="Source" style="html=1;" vertex="1" parent="1">
                    <mxGeometry x="530" y="40" width="70" height="40" as="geometry"/>
                </mxCell>
                <mxCell id="73" value="Data" style="html=1;" vertex="1" parent="1">
                    <mxGeometry x="670" y="40" width="70" height="40" as="geometry"/>
                </mxCell>
                <mxCell id="74" value="Data size" style="html=1;" vertex="1" parent="1">
                    <mxGeometry x="600" y="40" width="70" height="40" as="geometry"/>
                </mxCell>
            </root>
        </mxGraphModel>
    </diagram>
</mxfile>